<?xml version="1.0" encoding="UTF-8" standalone="no"?>
<!-- Created with Inkscape (http://www.inkscape.org/) -->

<svg
   id="svg5986"
   version="1.1"
   viewBox="0 0 174.60656 30.547314"
   height="30.547314mm"
   width="174.60655mm"
   inkscape:version="1.1.2 (1:1.1+202202050950+0a00cf5339)"
   sodipodi:docname="logo.svg"
   xmlns:inkscape="http://www.inkscape.org/namespaces/inkscape"
   xmlns:sodipodi="http://sodipodi.sourceforge.net/DTD/sodipodi-0.dtd"
   xmlns:xlink="http://www.w3.org/1999/xlink"
   xmlns="http://www.w3.org/2000/svg"
   xmlns:svg="http://www.w3.org/2000/svg">
  <sodipodi:namedview
     id="namedview5988"
     pagecolor="#ffffff"
     bordercolor="#666666"
     borderopacity="1.0"
     inkscape:pageshadow="2"
     inkscape:pageopacity="0.0"
     inkscape:pagecheckerboard="0"
     inkscape:document-units="mm"
     showgrid="false"
     inkscape:zoom="0.92114197"
     inkscape:cx="438.58603"
     inkscape:cy="-24.969007"
     inkscape:window-width="1366"
     inkscape:window-height="703"
     inkscape:window-x="0"
     inkscape:window-y="0"
     inkscape:window-maximized="1"
     inkscape:current-layer="layer1"
     showguides="true" />
  <defs
     id="defs5983">
    <linearGradient
       id="linearGradient5567"
       inkscape:swatch="solid">
      <stop
         style="stop-color:#ff0000;stop-opacity:1;"
         offset="0"
         id="stop5565" />
    </linearGradient>
    <linearGradient
       id="linearGradient6229">
      <stop
         style="stop-color:#21b6ff;stop-opacity:1"
         offset="0"
         id="stop6225" />
      <stop
         style="stop-color:#1512cd;stop-opacity:1"
         offset="1"
         id="stop6227" />
    </linearGradient>
    <linearGradient
       id="linearGradient3280">
      <stop
         style="stop-color:#17862f;stop-opacity:1;"
         offset="0"
         id="stop3276" />
      <stop
         style="stop-color:#a3d79e;stop-opacity:1"
         offset="1"
         id="stop3278" />
    </linearGradient>
    <linearGradient
       xlink:href="#linearGradient3280"
       id="linearGradient5035"
       gradientUnits="userSpaceOnUse"
       x1="284.24203"
       y1="48.333237"
       x2="353.16702"
       y2="249.5246" />
    <linearGradient
       xlink:href="#linearGradient6229"
       id="linearGradient5985"
       x1="32.471718"
       y1="402.25455"
       x2="205.76317"
       y2="224.83195"
       gradientUnits="userSpaceOnUse" />
    <linearGradient
       xlink:href="#linearGradient6229"
       id="linearGradient6231"
       x1="269.58008"
       y1="374.66556"
       x2="486.01202"
       y2="355.47647"
       gradientUnits="userSpaceOnUse" />
  </defs>
  <g
     inkscape:label="Слой 1"
     inkscape:groupmode="layer"
     id="layer1"
     transform="translate(-25.623171,-16.639434)">
    <g
       aria-label="Аква Сана"
       id="text8637"
       style="font-size:30.0333px;line-height:1.25;font-family:'El Messiri';-inkscape-font-specification:'El Messiri, @wght=700';font-variation-settings:'wght' 700;fill:#21b6ff;stroke-width:0.750835">
      <path
         d="m 83.97752,37.491353 q -0.991099,0 -2.102331,-0.240267 -1.081199,-0.270299 -2.102331,-1.111232 -0.991099,-0.840932 -1.711898,-2.55283 l -0.690766,-1.681865 h -7.988858 l -2.46273,5.466061 h -1.561732 l 8.859824,-19.821979 h 1.351498 l 6.727459,16.037783 q 0.5406,1.321465 1.321466,2.102331 0.780866,0.780866 1.801998,0.900999 v 0.750832 q -0.240267,0.06007 -0.690766,0.0901 -0.420466,0.06007 -0.750833,0.06007 z M 70.012036,30.55366 h 6.787526 l -3.303664,-7.838691 z"
         id="path25009" />
      <path
         d="m 98.183252,37.671553 q -1.261398,0 -2.37263,-0.510566 -1.111233,-0.5406 -2.102332,-1.892098 L 90.825094,31.484693 V 37.37122 H 86.920765 V 27.159897 q 0,-1.351498 -0.390433,-2.162397 -0.3604,-0.840933 -1.711898,-0.840933 h -0.300333 v -0.900999 h 3.603996 q 1.051165,0 1.621798,0.3604 0.600666,0.3604 0.840932,1.201332 0.240267,0.840932 0.240267,2.342597 v 2.853164 l 3.634029,-4.444928 q 0.931032,-1.111233 1.832031,-1.711899 0.900999,-0.600666 2.492764,-0.600666 h 0.600666 v 0.780866 q -0.900999,0 -1.621798,0.3604 -0.720799,0.360399 -1.381532,1.141265 l -2.91323,3.54393 3.994429,5.285861 q 0.780866,1.051165 1.471632,1.591765 0.690766,0.540599 1.321465,0.690765 v 0.7208 q -0.24027,0.120133 -0.870966,0.210233 -0.630699,0.0901 -1.201332,0.0901 z"
         id="path25011" />
      <path
         d="M 102.50799,37.37122 V 27.159897 q 0,-1.351498 -0.39043,-2.162397 -0.3604,-0.840933 -1.7119,-0.840933 h -0.15016 v -0.900999 h 8.04892 q 1.802,0 3.1535,0.420467 1.38153,0.390433 2.13236,1.201332 0.78087,0.780865 0.78087,1.982197 0,1.351499 -1.02113,2.132365 -0.9911,0.780866 -2.7931,1.021132 1.92213,0.240266 3.1535,1.111232 1.26139,0.870966 1.26139,2.342598 0,1.351498 -0.78086,2.222464 -0.78087,0.870966 -2.28253,1.291432 -1.47163,0.390433 -3.604,0.390433 z m 5.25583,-1.201332 q 1.3515,0 2.2525,-0.660733 0.901,-0.690766 0.901,-2.042264 0,-1.441599 -0.93103,-2.132365 -0.93104,-0.720799 -2.5228,-0.720799 h -1.05117 v 5.345928 q 0.33037,0.120133 0.7208,0.180199 0.39044,0.03003 0.6307,0.03003 z m -1.3515,-6.907659 h 1.05117 q 1.14126,0 1.9822,-0.6307 0.87096,-0.630699 0.87096,-1.771965 0,-1.261398 -0.84093,-1.832031 -0.8109,-0.570633 -1.7119,-0.570633 -0.24026,0 -0.6307,0.06007 -0.39043,0.03003 -0.7208,0.150167 z"
         id="path25013" />
      <path
         d="m 121.99955,37.671553 q -1.2614,0 -2.22246,-0.300333 -0.93103,-0.300333 -1.59177,-0.810899 -0.6307,-0.5406 -0.96106,-1.291432 -0.33037,-0.750833 -0.33037,-1.651832 0,-1.441598 0.66073,-2.432697 0.69077,-1.021132 2.46274,-1.531699 1.77196,-0.540599 4.98552,-0.540599 h 0.4505 q 0,-1.801998 -0.33036,-2.853164 -0.33037,-1.051165 -0.9911,-1.501665 -0.6307,-0.450499 -1.5317,-0.450499 -1.02113,0 -1.83203,0.510566 -0.8109,0.510566 -1.1713,2.192431 h -1.65183 q 0,-0.780866 0.0901,-1.591765 0.12013,-0.810899 0.66073,-1.411565 0.5406,-0.600666 1.77196,-0.810899 1.2614,-0.240267 2.73304,-0.240267 1.47163,0 2.61289,0.390433 1.14127,0.390433 1.92213,1.171299 0.8109,0.780866 1.20134,1.982198 0.42046,1.171299 0.42046,2.763064 v 8.108991 h -2.55283 l -1.05116,-1.351499 h -0.15017 q -0.39043,0.630699 -1.32147,1.141266 -0.93103,0.510566 -2.28253,0.510566 z m 0.901,-1.501665 q 0.9911,0 1.65183,-0.660733 0.66074,-0.660733 0.901,-1.291432 v -3.754162 h -0.4505 q -2.16239,0 -3.12346,0.780865 -0.93103,0.780866 -0.93103,2.372631 0,1.261399 0.51056,1.922131 0.5406,0.6307 1.4416,0.6307 z"
         id="path25015" />
      <path
         d="m 145.2689,37.971886 q -3.1535,0 -5.37596,-1.351499 -2.22247,-1.351498 -3.39377,-3.664063 -1.14126,-2.312564 -1.14126,-5.19576 0,-2.282531 0.7208,-4.234696 0.75083,-1.982198 2.10233,-3.453829 1.3515,-1.471632 3.15349,-2.282531 1.802,-0.840933 3.93437,-0.840933 2.82313,0 4.53503,0.750833 1.74193,0.720799 2.58286,1.681865 0.60067,0.780866 0.69077,2.012231 0.0901,1.231365 0.0901,2.55283 h -0.90099 q -0.57064,-2.73303 -2.10234,-4.174628 -1.50166,-1.471632 -3.99442,-1.471632 -1.83204,0 -3.3337,0.840932 -1.50167,0.840933 -2.40266,2.91323 -0.87097,2.042265 -0.87097,5.706328 0,1.711898 0.3604,3.303663 0.3604,1.591764 1.14126,2.853163 0.8109,1.261399 2.04227,1.982198 1.2614,0.720799 3.0634,0.720799 2.07229,0 3.84426,-1.081199 1.77196,-1.111232 2.85316,-3.213563 l 1.05117,0.810899 q -1.41157,2.492764 -3.45383,3.664063 -2.04227,1.171299 -5.19576,1.171299 z"
         id="path25017" />
      <path
         d="m 160.61588,37.671553 q -1.2614,0 -2.22246,-0.300333 -0.93104,-0.300333 -1.59177,-0.810899 -0.6307,-0.5406 -0.96106,-1.291432 -0.33037,-0.750833 -0.33037,-1.651832 0,-1.441598 0.66073,-2.432697 0.69077,-1.021132 2.46273,-1.531699 1.77197,-0.540599 4.98553,-0.540599 h 0.4505 q 0,-1.801998 -0.33037,-2.853164 -0.33036,-1.051165 -0.9911,-1.501665 -0.63069,-0.450499 -1.53169,-0.450499 -1.02114,0 -1.83203,0.510566 -0.8109,0.510566 -1.1713,2.192431 h -1.65183 q 0,-0.780866 0.0901,-1.591765 0.12014,-0.810899 0.66074,-1.411565 0.5406,-0.600666 1.77196,-0.810899 1.2614,-0.240267 2.73303,-0.240267 1.47163,0 2.6129,0.390433 1.14127,0.390433 1.92213,1.171299 0.8109,0.780866 1.20133,1.982198 0.42047,1.171299 0.42047,2.763064 v 8.108991 h -2.55283 l -1.05117,-1.351499 h -0.15016 q -0.39044,0.630699 -1.32147,1.141266 -0.93103,0.510566 -2.28253,0.510566 z m 0.901,-1.501665 q 0.9911,0 1.65183,-0.660733 0.66073,-0.660733 0.901,-1.291432 v -3.754162 h -0.4505 q -2.1624,0 -3.12346,0.780865 -0.93103,0.780866 -0.93103,2.372631 0,1.261399 0.51056,1.922131 0.5406,0.6307 1.4416,0.6307 z"
         id="path25019" />
      <path
         d="M 171.90835,37.37122 V 27.159897 q 0,-1.351498 -0.39043,-2.162397 -0.3604,-0.840933 -1.7119,-0.840933 h -0.30033 v -0.900999 h 3.604 q 1.05116,0 1.62179,0.3604 0.60067,0.3604 0.84094,1.201332 0.24026,0.840932 0.24026,2.342597 v 2.402665 h 4.80533 v -6.306994 h 3.90433 v 10.211323 q 0,1.351498 0.3604,2.192431 0.39043,0.810899 1.74193,0.810899 h 0.30033 v 0.900999 h -3.60399 q -1.05117,0 -1.65183,-0.330367 -0.57064,-0.360399 -0.8109,-1.201332 -0.24027,-0.870965 -0.24027,-2.37263 V 30.91406 h -4.80533 v 6.45716 z"
         id="path25021" />
      <path
         d="m 192.87157,37.671553 q -1.2614,0 -2.22246,-0.300333 -0.93103,-0.300333 -1.59177,-0.810899 -0.6307,-0.5406 -0.96106,-1.291432 -0.33037,-0.750833 -0.33037,-1.651832 0,-1.441598 0.66073,-2.432697 0.69077,-1.021132 2.46273,-1.531699 1.77197,-0.540599 4.98553,-0.540599 h 0.4505 q 0,-1.801998 -0.33036,-2.853164 -0.33037,-1.051165 -0.9911,-1.501665 -0.6307,-0.450499 -1.5317,-0.450499 -1.02113,0 -1.83203,0.510566 -0.8109,0.510566 -1.1713,2.192431 h -1.65183 q 0,-0.780866 0.0901,-1.591765 0.12013,-0.810899 0.66073,-1.411565 0.5406,-0.600666 1.77196,-0.810899 1.2614,-0.240267 2.73303,-0.240267 1.47164,0 2.6129,0.390433 1.14127,0.390433 1.92213,1.171299 0.8109,0.780866 1.20133,1.982198 0.42047,1.171299 0.42047,2.763064 v 8.108991 h -2.55283 l -1.05117,-1.351499 h -0.15016 q -0.39043,0.630699 -1.32147,1.141266 -0.93103,0.510566 -2.28253,0.510566 z m 0.901,-1.501665 q 0.9911,0 1.65183,-0.660733 0.66074,-0.660733 0.901,-1.291432 v -3.754162 h -0.4505 q -2.1624,0 -3.12346,0.780865 -0.93103,0.780866 -0.93103,2.372631 0,1.261399 0.51056,1.922131 0.5406,0.6307 1.4416,0.6307 z"
         id="path25023" />
      <text
         xml:space="preserve"
         style="font-style:normal;font-weight:normal;font-size:10.5833px;line-height:1.25;font-family:sans-serif;fill:#000000;fill-opacity:1;stroke:none;stroke-width:0.198658"
         x="35.03091"
         y="42.363003"
         id="text36798"><tspan
           sodipodi:role="line"
           id="tspan36796"
           style="stroke-width:0.198658"
           x="35.03091"
           y="42.363003"></tspan></text>
    </g>
    <g
       id="g53529"
       transform="matrix(1.154095,0,0,1.154095,-9.255556,-2.5640538)">
      <g
         id="g6081"
         transform="matrix(0.06150794,0,0,0.06150794,29.309304,16.151655)">
        <path
           d="m 223.47,413.36 c 27.07,-6.44 42.57,-23.56 82.03,-22.61 41.35,1.01 77,39.42 124.47,42.17 61.93,3.59 92.94,-65.22 50.4,-109.9 -15.31,-16.06 -40.62,-28.1 -61.72,-34.23 -67.37,-19.57 -122.7,-1.73 -166.88,53.79 -19.32,24.28 -28.02,39.36 -28.3,70.78 z"
           id="path282"
           style="fill:#21b6ff;fill-opacity:1" />
        <path
           d="m 192.35,192.52 c -7.97,39.13 -25.18,72.09 -62.23,90.63 -23.19,11.61 -71.81,16.2 -100.33,48.92 -7.61,8.73 -9.78,16.57 -12.45,27.5 -8.44,34.59 4.39,62.78 39.23,74.32 9.51,3.15 18.25,5.1 28.29,4.11 72.97,-7.2 140.53,-63.93 141.43,-140.72 0.36,-30.62 2.45,-93.51 -33.94,-104.76 z"
           id="path280"
           style="fill:#21b6ff;fill-opacity:1" />
        <path
           d="m 220.64,19.82 c 17.4,6.53 20.36,5.92 36.77,17.07 55.95,38 60.05,79.58 65.07,141.48 0,0 -26.23,-76.45 -26.23,-76.45 -29.13,-58.28 -76.46,-65.83 -135.01,-73.61 5.7,13.74 13.97,5.16 19.77,15.05 1.89,4.48 -0.03,18.09 0,24.59 2.22,20.3 5.63,40.69 13.82,59.46 22.09,50.65 76.82,87.49 124.82,111.1 19.53,9.61 46.22,20.14 67.89,21.96 0,0 -15.95,-33.97 -15.95,-33.97 -6.03,-17.83 -9.48,-51.72 -9.51,-70.78 -0.05,-33.21 -0.49,-69.66 -17.97,-99.1 C 320.05,16.08 262.58,-7.79 220.64,19.82 Z"
           id="Выделение"
           style="opacity:1;fill:#17862f;fill-opacity:1;stroke-width:1.008;stroke-miterlimit:4;stroke-dasharray:none" />
      </g>
      <ellipse
         style="fill:#f9f9f9;fill-opacity:1;stroke-width:0.273374"
         id="path24738"
         cx="-31.859875"
         cy="55.503391"
         rx="0.58049595"
         ry="0.32972652"
         transform="matrix(0.66311067,-0.74852137,0.96877913,0.24792538,0,0)"
         inkscape:transform-center-x="-0.4373387"
         inkscape:transform-center-y="0.70385975" />
      <ellipse
         style="fill:#f9f9f9;fill-opacity:1;stroke-width:0.291489"
         id="path24738-2"
         cx="-5.6222157"
         cy="66.462761"
         rx="0.33269036"
         ry="0.65409964"
         transform="matrix(0.31764561,-0.94820951,0.88001555,0.47494487,0,0)"
         inkscape:transform-center-x="0.041911211"
         inkscape:transform-center-y="-0.049813897" />
    </g>
    <g
       aria-label="офіційне представництво м. кривий ріг"
       transform="scale(0.88253613,1.1330981)"
       id="text42074"
       style="font-weight:bold;font-size:6.20474px;line-height:1.25;font-family:'Liberation Sans';-inkscape-font-specification:'Liberation Sans, Bold';fill:#17862f;stroke-width:0.155119">
      <path
         d="m 108.37233,38.68325 q 0,0.7968 -0.44233,1.251249 -0.44233,0.451419 -1.22398,0.451419 -0.76651,0 -1.20278,-0.454449 -0.43627,-0.454448 -0.43627,-1.248219 0,-0.790741 0.43627,-1.24216 0.43627,-0.454448 1.22096,-0.454448 0.80286,0 1.22398,0.4393 0.42415,0.436271 0.42415,1.257308 z m -0.89072,0 q 0,-0.584724 -0.19087,-0.848304 -0.19087,-0.26358 -0.55443,-0.26358 -0.77559,0 -0.77559,1.111884 0,0.548368 0.18784,0.836186 0.19087,0.284788 0.54837,0.284788 0.78468,0 0.78468,-1.120974 z"
         id="path53566" />
      <path
         d="m 113.79239,38.671132 q 0,0.821037 -0.306,1.269426 -0.30296,0.44536 -0.8483,0.44536 -0.31206,0 -0.5514,-0.145423 -0.23631,-0.148454 -0.36356,-0.436271 h -0.0182 q 0.0182,0.09089 0.0182,0.551398 v 1.257308 h -0.79074 v -1.820825 h -0.006 q -0.25449,0.593813 -0.96343,0.593813 -0.52716,0 -0.81498,-0.448389 -0.28479,-0.44839 -0.28479,-1.248219 0,-0.814978 0.30297,-1.257309 0.30297,-0.445359 0.85436,-0.445359 0.32418,0 0.55746,0.148453 0.23328,0.148453 0.35447,0.430211 h 0.006 l -0.006,-0.539279 v -1.196715 h 0.79074 v 1.751143 q 0.26358,-0.602902 0.96343,-0.602902 0.52413,0 0.81498,0.4393 0.29085,0.436271 0.29085,1.254279 z m -2.84788,-0.003 q 0,-0.524131 -0.15451,-0.811948 -0.15149,-0.290848 -0.45142,-0.290848 -0.29388,0 -0.44233,0.27267 -0.14543,0.269639 -0.14543,0.851334 0,1.114914 0.5817,1.114914 0.29388,0 0.45142,-0.299936 0.16057,-0.302966 0.16057,-0.836186 z m 1.96019,0.003 q 0,-1.102796 -0.58775,-1.102796 -0.29085,0 -0.44839,0.293877 -0.15755,0.293877 -0.15755,0.833156 0,0.52716 0.15452,0.818008 0.15754,0.290847 0.44839,0.290847 0.59078,0 0.59078,-1.133092 z"
         id="path53568" />
      <path
         d="m 114.47709,36.456451 v -0.627139 h 0.85134 v 0.627139 z m 0,3.868874 v -3.27809 h 0.85134 v 3.27809 z"
         id="path53570" />
      <path
         d="m 116.20097,40.325325 v -3.27809 h 0.85436 v 2.702455 h 1.17248 v -2.702455 h 0.85436 v 2.702455 h 0.44233 v 1.811736 h -0.74226 v -1.236101 z"
         id="path53572" />
      <path
         d="m 120.01531,36.456451 v -0.627139 h 0.85133 v 0.627139 z m 0,3.868874 v -3.27809 h 0.85133 v 3.27809 z"
         id="path53574" />
      <path
         d="m 122.52992,37.047235 v 1.472414 q 0,0.139364 -0.0212,0.445359 -0.0212,0.305996 -0.0394,0.424153 l 1.35729,-2.341926 h 0.86345 v 3.27809 h -0.78771 v -1.666312 q 0,-0.151483 0.0212,-0.372648 0.0212,-0.221165 0.0394,-0.302966 l -1.3179,2.341926 h -0.9089 v -3.27809 z m 0.70894,-0.309025 q -0.60593,0 -0.90889,-0.248432 -0.29994,-0.248432 -0.32418,-0.781652 h 0.67865 q 0.0303,0.602902 0.55442,0.602902 0.52413,0 0.55443,-0.602902 h 0.67864 q -0.0242,0.536249 -0.3272,0.784681 -0.29994,0.245403 -0.90587,0.245403 z"
         id="path53576" />
      <path
         d="m 126.40789,37.047235 v 1.296694 h 1.17247 v -1.296694 h 0.85437 v 3.27809 h -0.85437 v -1.402732 h -1.17247 v 1.402732 h -0.85437 v -3.27809 z"
         id="path53578" />
      <path
         d="m 130.64335,40.385918 q -0.73924,0 -1.13612,-0.436271 -0.39689,-0.4393 -0.39689,-1.278515 0,-0.811949 0.40294,-1.24822 0.40295,-0.43627 1.14219,-0.43627 0.70591,0 1.07855,0.469597 0.37265,0.466567 0.37265,1.369405 v 0.02424 h -2.10258 q 0,0.478686 0.17572,0.724089 0.17875,0.242372 0.50595,0.242372 0.45142,0 0.56958,-0.390825 l 0.80286,0.06968 q -0.34841,0.890719 -1.41485,0.890719 z m 0,-2.863027 q -0.29994,0 -0.46354,0.209047 -0.16057,0.209046 -0.16966,0.584724 h 1.27246 q -0.0242,-0.396886 -0.19087,-0.593813 -0.16663,-0.199958 -0.44839,-0.199958 z"
         id="path53580" />
      <path
         d="m 137.35707,37.047235 v 3.27809 h -0.85436 V 37.62287 h -1.17248 v 2.702455 h -0.85437 v -3.27809 z"
         id="path53582" />
      <path
         d="m 141.32592,38.671132 q 0,0.821037 -0.33023,1.269426 -0.3272,0.44536 -0.92708,0.44536 -0.34538,0 -0.6029,-0.148453 -0.25449,-0.151483 -0.39083,-0.433241 h -0.0182 q 0.0182,0.09089 0.0182,0.551398 v 1.257308 h -0.85133 v -3.81131 q 0,-0.463538 -0.0242,-0.754385 h 0.8271 q 0.0152,0.05453 0.0242,0.215106 0.0121,0.160571 0.0121,0.318114 h 0.0121 q 0.28782,-0.602902 1.04827,-0.602902 0.5726,0 0.88769,0.44233 0.31508,0.4393 0.31508,1.251249 z m -0.88769,0 q 0,-1.102796 -0.67561,-1.102796 -0.33932,0 -0.5211,0.296907 -0.17875,0.296906 -0.17875,0.830126 0,0.53019 0.17875,0.821037 0.18178,0.287818 0.51504,0.287818 0.68167,0 0.68167,-1.133092 z"
         id="path53584" />
      <path
         d="m 143.35579,40.385918 q -0.73923,0 -1.13612,-0.436271 -0.39688,-0.4393 -0.39688,-1.278515 0,-0.811949 0.40294,-1.24822 0.40295,-0.43627 1.14218,-0.43627 0.70591,0 1.07856,0.469597 0.37265,0.466567 0.37265,1.369405 v 0.02424 h -2.10258 q 0,0.478686 0.17572,0.724089 0.17875,0.242372 0.50595,0.242372 0.45142,0 0.56957,-0.390825 l 0.80286,0.06968 q -0.34841,0.890719 -1.41485,0.890719 z m 0,-2.863027 q -0.29993,0 -0.46353,0.209047 -0.16058,0.209046 -0.16967,0.584724 h 1.27246 q -0.0242,-0.396886 -0.19087,-0.593813 -0.16663,-0.199958 -0.44839,-0.199958 z"
         id="path53586" />
      <path
         d="m 147.55793,37.62287 h -0.715 q -0.20298,1.554215 -0.50898,2.12682 h 1.22398 z m -1.74205,2.702455 v 1.236101 h -0.74227 V 39.74969 h 0.37871 q 0.21813,-0.339322 0.37568,-0.981609 0.15754,-0.645318 0.29993,-1.720846 h 2.28437 v 2.702455 h 0.44233 v 1.811736 h -0.74227 v -1.236101 z"
         id="path53588" />
      <path
         d="m 150.68757,40.385918 q -0.7453,0 -1.15127,-0.44233 -0.40598,-0.44536 -0.40598,-1.23913 0,-0.811949 0.40901,-1.263368 0.409,-0.454448 1.16036,-0.454448 0.57866,0 0.95737,0.290847 0.37871,0.290847 0.47565,0.802859 l -0.85739,0.04241 q -0.0363,-0.251461 -0.18178,-0.399914 -0.14542,-0.151483 -0.41203,-0.151483 -0.65744,0 -0.65744,1.099766 0,1.133092 0.66956,1.133092 0.24237,0 0.40597,-0.151483 0.1636,-0.154513 0.20299,-0.457479 l 0.85436,0.03939 q -0.0454,0.336292 -0.24237,0.599872 -0.1939,0.263581 -0.51201,0.409004 -0.31812,0.142394 -0.715,0.142394 z"
         id="path53590" />
      <path
         d="m 152.51445,37.047235 h 2.69034 v 0.575635 h -0.91799 v 2.702455 h -0.85436 V 37.62287 h -0.91799 z"
         id="path53592" />
      <path
         d="m 156.56814,40.385918 q -0.47566,0 -0.74227,-0.257521 -0.26661,-0.26055 -0.26661,-0.730147 0,-0.508983 0.33023,-0.775593 0.33326,-0.26661 0.96343,-0.272669 l 0.70591,-0.01212 v -0.166631 q 0,-0.321144 -0.11209,-0.475656 -0.1121,-0.157543 -0.36659,-0.157543 -0.23632,0 -0.34841,0.109068 -0.10907,0.106038 -0.13634,0.35447 l -0.88769,-0.04241 q 0.0818,-0.478686 0.43627,-0.724088 0.3575,-0.248432 0.97252,-0.248432 0.62108,0 0.95738,0.305995 0.33629,0.305996 0.33629,0.869512 v 1.193685 q 0,0.275699 0.0606,0.381737 0.0636,0.103009 0.20905,0.103009 0.0969,0 0.18784,-0.01818 v 0.460508 q -0.0757,0.01818 -0.13634,0.03333 -0.0606,0.01515 -0.12119,0.02424 -0.0606,0.0091 -0.13027,0.01515 -0.0667,0.0061 -0.15754,0.0061 -0.32115,0 -0.47566,-0.157542 -0.15148,-0.157543 -0.18178,-0.463538 h -0.0182 q -0.3575,0.645317 -1.07855,0.645317 z m 0.99069,-1.578452 -0.43627,0.0061 q -0.2969,0.01212 -0.42112,0.06665 -0.12422,0.0515 -0.19087,0.160572 -0.0636,0.109068 -0.0636,0.290847 0,0.233284 0.10604,0.348411 0.10906,0.112097 0.28781,0.112097 0.19996,0 0.36356,-0.109068 0.16663,-0.109067 0.26055,-0.299936 0.0939,-0.193898 0.0939,-0.409004 z"
         id="path53594" />
      <path
         d="m 160.8854,37.047235 q 1.42394,0 1.42394,0.821037 0,0.284788 -0.1939,0.472627 -0.1939,0.184809 -0.54231,0.248432 v 0.02121 q 0.40597,0.04848 0.61502,0.245403 0.21208,0.196928 0.21208,0.524131 0,0.475656 -0.36356,0.711969 -0.36053,0.233284 -1.02403,0.233284 h -1.75114 v -3.27809 z m -0.76954,2.7479 h 0.68774 q 0.39991,0 0.56351,-0.09998 0.1636,-0.103008 0.1636,-0.345381 0,-0.257521 -0.17269,-0.360529 -0.17269,-0.103009 -0.58775,-0.103009 h -0.65441 z m 0,-2.21771 v 0.787711 h 0.63017 q 0.36962,0 0.5211,-0.08786 0.15452,-0.08786 0.15452,-0.309025 0,-0.202987 -0.14543,-0.296907 -0.14542,-0.09392 -0.4908,-0.09392 z"
         id="path53596" />
      <path
         d="m 163.9302,37.047235 v 1.296694 h 1.17248 v -1.296694 h 0.85436 v 3.27809 h -0.85436 v -1.402732 h -1.17248 v 1.402732 h -0.85436 v -3.27809 z"
         id="path53598" />
      <path
         d="m 167.61427,37.047235 v 1.472414 q 0,0.139364 -0.0212,0.445359 -0.0212,0.305996 -0.0394,0.424153 l 1.35729,-2.341926 h 0.86345 v 3.27809 h -0.78771 v -1.666312 q 0,-0.151483 0.0212,-0.372648 0.0212,-0.221165 0.0394,-0.302966 l -1.31791,2.341926 h -0.90889 v -3.27809 z"
         id="path53600" />
      <path
         d="m 170.63787,40.325325 v -3.27809 h 0.85436 v 2.702455 h 1.17248 v -2.702455 h 0.85436 v 2.702455 h 0.44233 v 1.811736 h -0.74226 v -1.236101 z"
         id="path53602" />
      <path
         d="m 174.19469,37.047235 h 2.69033 v 0.575635 h -0.91798 v 2.702455 h -0.85437 V 37.62287 h -0.91798 z"
         id="path53604" />
      <path
         d="m 179.11485,37.047235 q 1.42394,0 1.42394,0.821037 0,0.284788 -0.1939,0.472627 -0.1939,0.184809 -0.54231,0.248432 v 0.02121 q 0.40597,0.04848 0.61502,0.245403 0.21208,0.196928 0.21208,0.524131 0,0.475656 -0.36356,0.711969 -0.36053,0.233284 -1.02403,0.233284 h -1.75114 v -3.27809 z m -0.76954,2.7479 h 0.68774 q 0.39991,0 0.56351,-0.09998 0.1636,-0.103008 0.1636,-0.345381 0,-0.257521 -0.17269,-0.360529 -0.17269,-0.103009 -0.58775,-0.103009 h -0.65441 z m 0,-2.21771 v 0.787711 h 0.63017 q 0.36962,0 0.5211,-0.08786 0.15452,-0.08786 0.15452,-0.309025 0,-0.202987 -0.14543,-0.296907 -0.14542,-0.09392 -0.4908,-0.09392 z"
         id="path53606" />
      <path
         d="m 184.33798,38.68325 q 0,0.7968 -0.44233,1.251249 -0.44233,0.451419 -1.22398,0.451419 -0.7665,0 -1.20277,-0.454449 -0.43627,-0.454448 -0.43627,-1.248219 0,-0.790741 0.43627,-1.24216 0.43627,-0.454448 1.22095,-0.454448 0.80286,0 1.22398,0.4393 0.42415,0.436271 0.42415,1.257308 z m -0.89072,0 q 0,-0.584724 -0.19087,-0.848304 -0.19086,-0.26358 -0.55442,-0.26358 -0.7756,0 -0.7756,1.111884 0,0.548368 0.18784,0.836186 0.19087,0.284788 0.54837,0.284788 0.78468,0 0.78468,-1.120974 z"
         id="path53608" />
      <path
         d="m 188.94003,40.325325 h -0.64531 l -0.86043,-2.681248 q 0.0485,0.469598 0.0485,0.778623 v 1.902625 h -0.7453 v -3.27809 h 1.12703 l 0.54534,1.699638 q 0.17269,0.557457 0.20602,0.866482 0.0485,-0.357499 0.20602,-0.866482 l 0.53019,-1.699638 h 1.10885 v 3.27809 h -0.7453 V 38.4227 q 0,-0.312055 0.0545,-0.784682 z"
         id="path53610" />
      <path
         d="m 191.31529,40.325325 v -0.924046 h 0.87557 v 0.924046 z"
         id="path53612" />
      <path
         d="m 194.77212,37.047235 h 0.85437 v 1.405761 q 0.12724,-0.0061 0.18784,-0.04545 0.0606,-0.04241 0.13027,-0.133305 0.0697,-0.09392 0.15451,-0.245402 0.0879,-0.154512 0.49081,-0.981609 h 0.83012 l -0.62411,1.1543 q -0.1333,0.248432 -0.30902,0.393855 l 0.96343,1.729935 h -0.86951 l -0.70591,-1.387583 q -0.0939,0.03333 -0.24843,0.03333 v 1.354257 h -0.85437 z"
         id="path53614" />
      <path
         d="m 200.98292,38.671132 q 0,0.821037 -0.33023,1.269426 -0.3272,0.44536 -0.92708,0.44536 -0.34538,0 -0.6029,-0.148453 -0.25449,-0.151483 -0.39082,-0.433241 h -0.0182 q 0.0182,0.09089 0.0182,0.551398 v 1.257308 h -0.85134 v -3.81131 q 0,-0.463538 -0.0242,-0.754385 h 0.82709 q 0.0151,0.05453 0.0242,0.215106 0.0121,0.160571 0.0121,0.318114 h 0.0121 q 0.28781,-0.602902 1.04826,-0.602902 0.5726,0 0.88769,0.44233 0.31508,0.4393 0.31508,1.251249 z m -0.88769,0 q 0,-1.102796 -0.67561,-1.102796 -0.33932,0 -0.5211,0.296907 -0.17875,0.296906 -0.17875,0.830126 0,0.53019 0.17875,0.821037 0.18178,0.287818 0.51504,0.287818 0.68167,0 0.68167,-1.133092 z"
         id="path53616" />
      <path
         d="m 202.46139,37.047235 v 1.472414 q 0,0.139364 -0.0212,0.445359 -0.0212,0.305996 -0.0394,0.424153 l 1.35729,-2.341926 h 0.86345 v 3.27809 h -0.78771 v -1.666312 q 0,-0.151483 0.0212,-0.372648 0.0212,-0.221165 0.0394,-0.302966 l -1.3179,2.341926 h -0.9089 v -3.27809 z"
         id="path53618" />
      <path
         d="m 207.1089,37.047235 q 1.42394,0 1.42394,0.821037 0,0.284788 -0.1939,0.472627 -0.1939,0.184809 -0.54231,0.248432 v 0.02121 q 0.40597,0.04848 0.61502,0.245403 0.21207,0.196928 0.21207,0.524131 0,0.475656 -0.36355,0.711969 -0.36053,0.233284 -1.02403,0.233284 H 205.485 v -3.27809 z m -0.76954,2.7479 h 0.68773 q 0.39992,0 0.56352,-0.09998 0.1636,-0.103008 0.1636,-0.345381 0,-0.257521 -0.17269,-0.360529 -0.17269,-0.103009 -0.58775,-0.103009 h -0.65441 z m 0,-2.21771 v 0.787711 h 0.63017 q 0.36962,0 0.5211,-0.08786 0.15452,-0.08786 0.15452,-0.309025 0,-0.202987 -0.14543,-0.296907 -0.14542,-0.09392 -0.4908,-0.09392 z"
         id="path53620" />
      <path
         d="m 210.09008,37.047235 v 1.472414 q 0,0.139364 -0.0212,0.445359 -0.0212,0.305996 -0.0394,0.424153 l 1.35728,-2.341926 h 0.86345 v 3.27809 h -0.78771 v -1.666312 q 0,-0.151483 0.0212,-0.372648 0.0212,-0.221165 0.0394,-0.302966 l -1.3179,2.341926 h -0.9089 v -3.27809 z"
         id="path53622" />
      <path
         d="m 213.90442,37.047235 v 1.472414 q 0,0.139364 -0.0212,0.445359 -0.0212,0.305996 -0.0394,0.424153 l 1.35729,-2.341926 h 0.86345 v 3.27809 h -0.78771 v -1.666312 q 0,-0.151483 0.0212,-0.372648 0.0212,-0.221165 0.0394,-0.302966 l -1.31791,2.341926 h -0.90889 v -3.27809 z m 0.70894,-0.309025 q -0.60593,0 -0.9089,-0.248432 -0.29994,-0.248432 -0.32417,-0.781652 h 0.67864 q 0.0303,0.602902 0.55443,0.602902 0.52413,0 0.55442,-0.602902 h 0.67865 q -0.0242,0.536249 -0.32721,0.784681 -0.29993,0.245403 -0.90586,0.245403 z"
         id="path53624" />
      <path
         d="m 221.75426,38.671132 q 0,0.821037 -0.33023,1.269426 -0.3272,0.44536 -0.92708,0.44536 -0.34538,0 -0.6029,-0.148453 -0.25449,-0.151483 -0.39082,-0.433241 h -0.0182 q 0.0182,0.09089 0.0182,0.551398 v 1.257308 h -0.85134 v -3.81131 q 0,-0.463538 -0.0242,-0.754385 h 0.8271 q 0.0152,0.05453 0.0242,0.215106 0.0121,0.160571 0.0121,0.318114 h 0.0121 q 0.28781,-0.602902 1.04826,-0.602902 0.5726,0 0.88769,0.44233 0.31508,0.4393 0.31508,1.251249 z m -0.88769,0 q 0,-1.102796 -0.67561,-1.102796 -0.33932,0 -0.5211,0.296907 -0.17875,0.296906 -0.17875,0.830126 0,0.53019 0.17875,0.821037 0.18178,0.287818 0.51504,0.287818 0.68167,0 0.68167,-1.133092 z"
         id="path53626" />
      <path
         d="m 222.44199,36.456451 v -0.627139 h 0.85134 v 0.627139 z m 0,3.868874 v -3.27809 h 0.85134 v 3.27809 z"
         id="path53628" />
      <path
         d="m 226.1503,37.047235 v 0.575635 h -1.13007 v 2.702455 h -0.85436 v -3.27809 z"
         id="path53630" />
    </g>
  </g>
</svg>
