<?xml version="1.0" encoding="UTF-8" standalone="no"?>
<!-- Created with Inkscape (http://www.inkscape.org/) -->

<svg
   width="187.24174mm"
   height="29.76684mm"
   viewBox="0 0 187.24175 29.76684"
   version="1.1"
   id="svg5"
   inkscape:export-filename="logo_inline.svg"
   inkscape:export-xdpi="96"
   inkscape:export-ydpi="96"
   sodipodi:docname="logo_inline.svg"
   xml:space="preserve"
   inkscape:version="1.2 (1:1.2+202205241504+da316b6974)"
   xmlns:inkscape="http://www.inkscape.org/namespaces/inkscape"
   xmlns:sodipodi="http://sodipodi.sourceforge.net/DTD/sodipodi-0.dtd"
   xmlns="http://www.w3.org/2000/svg"
   xmlns:svg="http://www.w3.org/2000/svg"><sodipodi:namedview
     id="namedview7"
     pagecolor="#ffffff"
     bordercolor="#666666"
     borderopacity="1.0"
     inkscape:showpageshadow="2"
     inkscape:pageopacity="0.0"
     inkscape:pagecheckerboard="0"
     inkscape:deskcolor="#d1d1d1"
     inkscape:document-units="mm"
     showgrid="false"
     inkscape:zoom="0.84348133"
     inkscape:cx="321.88027"
     inkscape:cy="21.340128"
     inkscape:window-width="1366"
     inkscape:window-height="703"
     inkscape:window-x="0"
     inkscape:window-y="0"
     inkscape:window-maximized="1"
     inkscape:current-layer="layer1" /><defs
     id="defs2"><linearGradient
       id="linearGradient5567"
       inkscape:swatch="solid"><stop
         style="stop-color:#ff0000;stop-opacity:1;"
         offset="0"
         id="stop5565" /></linearGradient></defs><g
     inkscape:label="Слой 1"
     inkscape:groupmode="layer"
     id="layer1"
     transform="translate(-18.664959,-22.605536)"><text
       xml:space="preserve"
       style="font-style:normal;font-variant:normal;font-weight:normal;font-stretch:normal;font-size:24.7526px;line-height:1.25;font-family:'Century Gothic';-inkscape-font-specification:'Century Gothic';fill:#21b6ff;fill-opacity:1;stroke:#008080;stroke-width:0.618817;stroke-opacity:1"
       x="42.74744"
       y="47.252647"
       id="text1467"><tspan
         sodipodi:role="line"
         id="tspan1465"
         style="font-style:normal;font-variant:normal;font-weight:normal;font-stretch:normal;font-family:'Century Gothic';-inkscape-font-specification:'Century Gothic';fill:#21b6ff;fill-opacity:1;stroke:#008080;stroke-width:0.618817;stroke-opacity:1"
         x="42.74744"
         y="47.252647">Аква Санакр</tspan></text><g
       id="g310"
       transform="matrix(0.09454344,0,0,0.09454344,18.603208,22.444329)"><path
         id="path5478"
         style="display:inline;fill:#008000;fill-opacity:1;stroke:#008080;stroke-width:1.587;stroke-linecap:butt;stroke-linejoin:miter;stroke-dasharray:none;stroke-opacity:1"
         d="m 179.66345,98.835828 -0.015,0.255798 c -0.004,1.795604 -1.23339,3.395014 -2.65876,4.284494 -3.172,2.2883 -6.72201,4.26855 -10.25673,6.05751 -2.38708,1.20006 -4.79547,2.35368 -7.28638,3.32435 -2.75899,1.10839 -5.44468,2.41834 -8.32094,3.20548 -2.91291,1.01833 -5.9402,1.62399 -8.94106,2.31769 -7.80448,1.66645 -15.61342,3.31041 -23.44921,4.824 -5.9881,1.17571 -11.97937,2.33865 -17.9064,3.79718 -3.912643,0.92568 -7.810302,1.92326 -11.637535,3.16002 -3.117675,0.98655 -6.275682,1.85996 -9.36842,2.91661 -4.066664,1.65376 -8.166676,3.23516 -12.212692,4.93355 -2.422389,1.28654 -4.916996,2.44729 -7.293611,3.81372 -2.000324,1.3104 -4.097947,2.48303 -6.036841,3.88039 -1.876711,1.5162 -3.849126,2.92557 -5.666838,4.50773 -1.816941,1.88522 -3.735851,3.68082 -5.48907,5.62188 -1.363337,1.76024 -2.834223,3.44493 -3.926892,5.39554 -1.089994,1.79642 -2.354121,3.49829 -3.122807,5.4684 -0.856613,1.951 -1.851373,3.84837 -2.623096,5.8322 -0.804996,2.69465 -1.747755,5.35401 -2.466516,8.07082 -0.62065,3.11221 -1.388812,6.19917 -1.714624,9.36171 -0.553612,3.55469 -0.713986,7.15362 -0.994255,10.73629 -0.285263,5.57435 -0.570974,11.14865 -0.855761,16.72301 4.645826,-4.95983 9.199851,-10.00802 13.916463,-14.89986 1.942161,-1.78186 3.757857,-3.71 5.787244,-5.39141 2.585991,-1.98938 5.029842,-4.17427 7.817094,-5.88594 1.757401,-1.16029 3.615395,-2.17058 5.46995,-3.16363 3.979971,-1.88362 7.94134,-3.81986 12.072131,-5.35781 3.174423,-1.30639 6.434839,-2.39192 9.692432,-3.46594 1.371564,-0.32174 2.716702,-0.82524 4.105176,-1.03146 1.113432,-0.23714 0.245226,0.4176 -0.144178,0.85679 -4.922031,4.40624 -10.231509,8.35221 -15.273486,12.6168 -3.265083,2.94131 -6.613906,5.79213 -9.82524,8.7912 -4.19993,4.08114 -8.434597,8.13313 -12.355318,12.48812 -3.689573,3.91139 -7.151722,8.02571 -10.503752,12.2282 -2.638718,3.19031 -4.977369,6.60891 -7.298262,10.03298 -3.225531,4.82034 -6.107368,9.87358 -9.517249,14.56862 -0.573368,0.64885 -1.017449,1.45995 -1.897042,1.72599 -0.415211,0.26782 -0.812932,-0.15564 -1.268656,-0.32711 0.09785,0.29113 0.241931,0.5498 0.352433,0.80615 2.82801,6.56049 8.097629,11.084 8.862911,11.88264 0.695777,0.7261 4.514497,4.61289 12.153894,9.21995 0.213689,0.12887 0.518115,0.36829 0.761711,0.54363 -0.329063,-0.92941 -0.734105,-1.84852 -0.908989,-2.79879 0.133637,-1.95546 1.260793,-3.63734 1.935283,-5.43636 1.356212,-3.24717 3.105796,-6.31019 4.649328,-9.46971 3.855364,0.49822 7.695029,1.13498 11.560535,1.54306 3.150339,0.25247 6.292824,0.6564 9.458854,0.60668 4.548721,0.0474 9.098605,0.25838 13.645679,0.0357 3.641074,-0.0923 7.282162,-0.18168 10.911995,-0.50075 4.318583,-0.33757 8.654797,-0.48613 12.947017,-1.09916 2.54336,-0.33153 5.11568,-0.50241 7.59902,-1.17925 4.71282,-1.08893 9.47809,-2.10268 13.9516,-3.99149 2.62759,-0.99784 5.04763,-2.45615 7.57783,-3.66954 1.91693,-1.01627 3.91577,-1.89469 5.78208,-2.9962 2.84325,-2.00014 5.75402,-3.91295 8.55555,-5.96708 2.28036,-1.95763 4.68938,-3.77394 6.75101,-5.97121 1.96514,-2.00122 4.04369,-3.89758 5.93607,-5.96605 2.13549,-2.55122 4.37627,-5.01843 6.4456,-7.62227 2.1496,-2.96072 4.39917,-5.85332 6.48694,-8.85631 1.72295,-2.77939 3.54409,-5.50207 5.20589,-8.3168 1.81594,-3.52253 3.72322,-7.00173 5.48287,-10.55078 1.34478,-3.29238 2.79704,-6.54562 4.07572,-9.86245 1.05876,-3.32681 2.22914,-6.62232 3.21944,-9.96838 0.99111,-4.28272 2.06361,-8.54892 3.00447,-12.84159 0.79922,-5.02617 1.65014,-10.04467 2.23293,-15.10192 0.36717,-2.84539 0.7354,-5.69062 1.1033,-8.53592 -0.23802,-0.98205 -0.59591,-2.40901 -0.79375,-2.93263 -0.97079,-2.5694 -3.39564,-8.70273 -6.89157,-15.61094 -3.07761,-6.08153 -6.49766,-11.51131 -7.94319,-13.73921 -0.33618,-0.51815 -1.76133,-2.61982 -2.64635,-3.926892 z"
         sodipodi:nodetypes="cccccccccccccccccccccccccccccccccccccccssscccccccccccccccccccccccccssscc" /><path
         style="display:inline;opacity:1;fill:#00a6a6;fill-opacity:1;stroke:#008080;stroke-width:1.587;stroke-dasharray:none;stroke-opacity:1"
         d="m 79.228732,291.14348 c -12.177915,-3.18779 -36.483598,-14.29504 -39.662033,-18.12479 -1.341498,-1.61643 -0.812149,-4.02675 2.181936,-9.93527 l 3.95312,-7.80113 10.813165,1.4954 c 14.379055,1.98854 48.13931,0.38093 59.91133,-2.85273 19.72729,-5.41906 35.165,-16.1314 49.85901,-34.59764 16.50041,-20.73633 25.78012,-42.96172 29.2942,-70.16124 l 2.03788,-15.77304 3.68737,15.0727 c 5.10456,20.8659 5.25171,48.03403 0.35485,65.51304 -4.30338,15.36026 -12.13613,30.87771 -21.56193,42.71625 -13.16258,16.53184 -36.14876,32.07223 -53.27198,36.01586 -11.54215,2.6583 -34.319423,1.90822 -47.596828,-1.56741 z M 15.861111,246.25452 C -0.21992165,208.80923 -2.9226574,170.15188 8.136747,135.77291 15.793199,111.97243 36.491166,77.098376 61.749453,45.440763 76.099184,27.455476 99.376436,2.4986077 101.80159,2.4986077 c 3.06056,0 41.52272,39.3203613 51.99107,53.1510883 12.17818,16.089793 26.78931,41.459085 27.81095,46.039944 -0.91539,3.99055 -22.16032,12.89257 -33.31313,15.7202 -5.26098,1.33385 -19.14464,4.24874 -30.85253,6.47754 -64.318107,12.24402 -86.29897,31.13393 -88.602112,76.14279 l -0.811879,15.866 10.464073,-11.27213 c 7.200771,-7.75683 13.824205,-13.0282 21.238649,-16.90306 9.906615,-5.17733 27.276741,-11.3825 28.483856,-10.17538 0.28064,0.28064 -5.128933,4.95213 -12.021314,10.38109 -17.248605,13.5862 -35.97732,33.5035 -45.396366,48.27725 -12.646369,19.8359 -11.159289,18.83495 -14.931746,10.05058 z"
         id="path383"
         sodipodi:nodetypes="ssscscsccscsssscccsscscscsssccc" /></g></g></svg>
